<svg width="24" height="24" viewBox="0 0 24 24" fill="none" xmlns="http://www.w3.org/2000/svg">
<path d="M7.99964 7.2V4.8C7.99964 4.35818 8.35782 4 8.79964 4H18.3996C18.8415 4 19.1996 4.35818 19.1996 4.8V16C19.1996 16.4418 18.8415 16.8 18.3996 16.8H15.9996V19.1993C15.9996 19.6415 15.6397 20 15.1942 20H5.60513C5.16028 20 4.7998 19.6443 4.7998 19.1993L4.80188 8.0007C4.80196 7.55849 5.16192 7.2 5.60734 7.2H7.99964ZM6.40174 8.8L6.39996 18.4H14.3996V8.8H6.40174ZM9.59964 7.2H15.9996V15.2H17.5996V5.6H9.59964V7.2Z" fill="white"/>
</svg>
